Coordinates
version=1
nRows=11
nColumns=33
inDegrees=yes

Units are S.I. units (second, meters, Newtons, ...)
Angles are in degrees.

endheader
time	ground_thorax_rot_x	ground_thorax_rot_y	ground_thorax_rot_z	ground_thorax_tx	ground_thorax_ty	ground_thorax_tz	clav_prot_r	clav_elev_r	scapula_abduction_r	scapula_elevation_r	scapula_upward_rot_r	scapula_winging_r	shoulder_elv_r	plane_of_elev_r	axial_rot_r	elbow_flexion_r	pro_sup_r	wrist_flex_r	wrist_dev_r	clav_prot_l	clav_elev_l	scapula_abduction_l	scapula_elevation_l	scapula_upward_rot_l	scapula_winging_l	shoulder_elv_l	plane_of_elev_l	axial_rot_l	elbow_flexion_l	pro_sup_l	wrist_flex_l	wrist_dev_l	
4.2500	-35.809585	-11.984432	10.480575	-63.273302	769.066357	13.016179	3.751408	-45.000000	45.000000	-45.000000	-7.025310	-3333.742919	-1378.437779	28.908712	70.854330	2168.971045	20.797451	16.773802	11.064549	6.039797	34.610316	-45.000000	-28.794843	4.196053	2975.312380	-6406.814354	14.263258	180.000000	1.997372	-141.400840	5.875616	-14.404941	
4.2600	-35.835990	-11.934498	10.394341	-63.259764	769.078579	13.069934	3.268025	-45.000000	45.000000	-45.000000	-6.715710	-3333.714532	-1378.526352	28.776144	70.700724	2169.016560	21.486114	16.846976	11.172829	6.416071	34.776543	-45.000000	-28.851348	4.186305	2975.250808	-6406.936242	14.332581	180.000000	2.011072	-141.674136	5.850309	-14.436249	
4.2700	-35.863578	-11.877257	10.298511	-63.275889	769.090038	13.131159	2.762231	-45.000000	45.000000	-45.000000	-6.385138	-3333.692424	-1378.610382	28.633201	70.533514	2169.072580	22.317474	16.933703	11.278546	6.805954	34.942646	-45.000000	-28.901830	4.175441	2975.197507	-6407.067445	14.403163	180.000000	2.033025	-142.006702	5.830888	-14.470932	
4.2800	-35.853151	-11.830172	10.234873	-63.367311	769.092263	13.176491	2.517275	-45.000000	45.000000	-45.000000	-6.201531	-3333.684477	-1378.665124	28.577662	70.431644	2169.119556	23.048518	17.002274	11.279605	6.970285	35.000117	-45.000000	-28.905867	4.183527	2975.141022	-6407.141808	14.440890	180.000000	2.045703	-142.305970	5.848982	-14.502457	
4.2900	-35.821518	-11.798080	10.200621	-63.538453	769.084860	13.206679	2.389115	-45.000000	45.000000	-45.000000	-6.092859	-3333.683666	-1378.690913	28.552531	70.350337	2169.169667	23.752235	17.067100	11.250821	7.037202	35.013591	-45.000000	-28.888387	4.214812	2975.121866	-6407.203265	14.466047	180.000000	2.070906	-142.597831	5.882622	-14.525923	
4.3000	-35.776630	-11.768410	10.180499	-63.799384	769.066375	13.218691	2.375062	-45.000000	45.000000	-45.000000	-6.066357	-3333.698373	-1378.700673	28.573785	70.286980	2169.214535	24.412419	17.122926	11.169887	6.998879	34.986744	-45.000000	-28.857703	4.275979	2975.117441	-6407.241337	14.464438	180.000000	2.099959	-142.874508	5.934654	-14.545649	
4.3100	-35.724759	-11.756383	10.188800	-64.151423	769.036130	13.209029	2.386235	-45.000000	45.000000	-45.000000	-6.073939	-3333.715195	-1378.684261	28.590758	70.217962	2169.262267	25.019735	17.178183	11.110101	6.944614	34.964315	-45.000000	-28.831562	4.364869	2975.172717	-6407.290392	14.461456	180.000000	2.149573	-143.127592	5.986504	-14.554605	
4.3200	-35.680344	-11.738431	10.195899	-64.590069	768.995331	13.178876	2.400728	-45.000000	45.000000	-45.000000	-6.112809	-3333.749040	-1378.667905	28.627100	70.138857	2169.302391	25.572175	17.225412	11.036566	6.879047	34.956286	-45.000000	-28.823210	4.483525	2975.242719	-6407.338210	14.437178	180.000000	2.198512	-143.354930	6.038486	-14.562030	
4.3300	-35.638935	-11.736939	10.227633	-65.112076	768.945159	13.127141	2.400162	-45.000000	45.000000	-45.000000	-6.152942	-3333.777561	-1378.629670	28.635164	70.048229	2169.345621	26.041395	17.275339	11.009570	6.835333	34.974156	-45.000000	-28.831629	4.612996	2975.370178	-6407.401773	14.420650	180.000000	2.258533	-143.540676	6.085289	-14.563291	
4.3400	-35.609618	-11.724204	10.249348	-65.712200	768.888781	13.058179	2.419029	-45.000000	45.000000	-45.000000	-6.226470	-3333.824053	-1378.603489	28.672945	69.958875	2169.378532	26.438696	17.312895	10.951271	6.768837	34.998860	-45.000000	-28.856927	4.752964	2975.485906	-6407.447200	14.382285	180.000000	2.304904	-143.690103	6.133505	-14.567544	
4.3500	-35.586646	-11.728942	10.294011	-66.386756	768.829266	12.973496	2.427164	-45.000000	45.000000	-45.000000	-6.289281	-3333.859720	-1378.555742	28.673489	69.862734	2169.419729	26.779504	17.359536	10.940570	6.725050	35.047219	-45.000000	-28.897397	4.882163	2975.650074	-6407.499745	14.360680	180.000000	2.359488	-143.805119	6.181398	-14.570123	
